<svg xmlns="http://www.w3.org/2000/svg" viewBox="0 0 652 581" width="32" height="32">
  <g transform="translate(-6.35,-14.88)">
    <g transform="matrix(0.984,0,0,0.989,-43.2,-25.1)">
      <ellipse fill="#ffffff" cx="381.9" cy="334.1" rx="331.5" ry="293.7"/>
      <path fill="#0d5c63" d="M 370.45882,447.66423 C 366.21946,443.74387 356.54326,436.84845 348.95618,432.34105 300.65842,403.64788 237.52775,388.9081 167.55403,389.98722 l -26.80527,0.41338 v -27.57993 -27.57995 l 17.23197,0.63806 c 9.47757,0.35094 29.29431,2.67321 44.03721,5.16063 67.65402,11.41453 124.77454,39.93576 158.03001,78.90699 9.53434,11.1731 19.9695,29.45348 18.78433,32.90664 -0.36606,1.06652 -4.1341,-1.26844 -8.37346,-5.18881 z m 16.32393,5.48446 c 0,-3.68848 7.6257,-17.64399 16.30197,-29.83356 19.41894,-27.28237 65.57011,-56.70054 111.98032,-71.37969 25.74476,-8.14287 62.02629,-14.10408 88.0704,-14.47035 l 22.0226,-0.30971 0.52839,26.80526 0.52842,26.80526 -40.7363,0.0837 c -33.69216,0.0693 -45.04035,0.84298 -65.62686,4.47393 -50.69722,8.94172 -93.47938,26.89782 -123.01698,51.63142 -5.52859,4.62941 -10.05196,7.41654 -10.05196,6.19361 z m 264.22323,-2.28292 c -60.4691,-21.50963 -150.99359,-26.46321 -203.72,-11.14773 -7.47672,2.17174 -15.20973,4.41604 -17.18448,4.9873 -2.04015,0.59018 -3.09889,0.24333 -2.45206,-0.80326 1.40911,-2.27999 24.91923,-10.77875 40.96792,-14.80961 6.57221,-1.65073 24.23498,-4.7616 39.25056,-6.91306 31.84382,-4.56264 84.60033,-5.0604 129.73542,-1.22402 l 27.76259,2.35974 v 15.15774 c 0,8.50169 -0.84075,15.37313 -1.91466,15.64826 -1.05306,0.26979 -6.65343,-1.19511 -12.44529,-3.25536 z M 98.857298,439.11109 c 0.668321,-7.63473 1.751342,-14.43703 2.406702,-15.11628 2.58873,-2.68305 83.83691,-7.84209 105.54059,-6.70152 26.90323,1.4138 73.12945,7.51209 89.98908,11.8716 14.87445,3.8462 38.76364,12.5073 37.62858,13.64237 -0.44361,0.44361 -7.68267,-0.94905 -16.08683,-3.09483 -21.53586,-5.49858 -71.85606,-10.08683 -95.25621,-8.68554 -32.75995,1.96177 -62.04478,6.51822 -92.48108,14.38914 -16.1135,4.167 -30.12046,7.57636 -31.126613,7.57636 -1.106222,0 -1.349015,-5.48719 -0.614219,-13.8813 z M 371.8193,412.39971 c -11.18679,-18.10059 -50.02956,-49.3253 -80.17279,-64.44887 -17.1986,-8.62892 -59.88614,-22.32102 -81.49127,-26.13846 l -18.66795,-3.29846 v -24.66454 c 0,-28.70133 -1.7325,-27.14382 23.13183,-20.79539 68.50149,17.48997 126.48041,59.55489 151.7675,110.11046 4.83541,9.66728 11.73561,33.17474 10.19119,34.71917 -0.46545,0.46543 -2.60676,-2.00235 -4.75851,-5.48396 z m 17.01344,4.21411 c -0.0494,-1.5796 1.05864,-7.18443 2.46241,-12.45516 13.04403,-48.97677 60.91559,-94.84602 124.83626,-119.61485 14.94219,-5.78998 49.38555,-15.3589 55.28443,-15.3589 2.57421,0 3.00368,3.55371 3.00368,24.85411 0,24.23705 -0.10695,24.87602 -4.30799,25.7355 -2.36938,0.48477 -10.33917,1.92417 -17.71062,3.19865 -60.63508,10.48354 -119.7165,41.38115 -150.1339,78.51507 -4.83062,5.89727 -9.80928,12.35925 -11.06369,14.35997 -1.71334,2.73268 -2.30308,2.92314 -2.37058,0.76561 z m -15.45263,-63.76377 c 0,-4.5594 -15.47376,-34.57491 -23.85945,-46.28184 -14.70121,-20.52377 -41.62542,-44.05997 -66.60829,-58.22669 l -11.0093,-6.24291 v -24.75007 c 0,-15.0036 0.74406,-24.75008 1.88946,-24.75008 5.74389,0 31.67435,18.30344 46.11248,32.54924 26.88583,26.52774 42.86307,54.18442 49.56163,85.79154 3.77081,17.79261 6.75944,44.40541 4.98672,44.40541 -0.59028,0 -1.07325,-1.12257 -1.07325,-2.4946 z m 16.66394,-6.69705 c 2.01385,-21.20846 6.74122,-43.73597 12.05661,-57.45392 14.58114,-37.63101 43.0218,-70.68171 76.74516,-89.18508 6.93258,-3.80376 13.17915,-6.34144 13.8813,-5.63931 0.70216,0.70217 1.27665,11.75184 1.27665,24.55488 v 23.27826 l -18.5618,11.34521 c -31.88532,19.48873 -60.76219,51.30796 -78.32902,86.31025 l -7.9233,15.78734 z m -13.37402,-84.62675 c -1.81485,-13.16329 -3.2862,-29.96443 -3.26968,-37.33588 0.0777,-34.68323 14.73786,-73.59077 36.80071,-97.66851 10.57853,-11.54459 35.99349,-31.571133 40.06577,-31.571133 0.88792,0 1.61439,12.070783 1.61439,26.824023 0,23.22832 -0.44915,27.19057 -3.35066,29.55891 -1.84285,1.50418 -8.30245,6.71074 -14.35465,11.57008 -30.35532,24.37247 -48.92513,61.49981 -52.72328,105.41183 l -1.48287,17.14396 z"/>
    </g>
  </g>
</svg>
