<?xml version="1.0" encoding="UTF-8" standalone="no"?>
<svg
   viewBox="0 0 2700 460"
   version="1.1"
   id="svg3"
   sodipodi:docname="logo-horizontal.svg"
   width="2700"
   height="460"
   xmlns:inkscape="http://www.inkscape.org/namespaces/inkscape"
   xmlns:sodipodi="http://sodipodi.sourceforge.net/DTD/sodipodi-0.dtd"
   xmlns="http://www.w3.org/2000/svg"
   xmlns:svg="http://www.w3.org/2000/svg">
  <defs
     id="defs3" />
  <sodipodi:namedview
     id="namedview3"
     pagecolor="#ffffff"
     bordercolor="#000000"
     borderopacity="0.25"
     inkscape:showpageshadow="2"
     inkscape:pageopacity="0.0"
     inkscape:pagecheckerboard="0"
     inkscape:deskcolor="#d1d1d1"
     inkscape:export-bgcolor="#ffffff01">
    <inkscape:page
       x="0"
       y="0"
       width="2700"
       height="460"
       id="page2"
       margin="0"
       bleed="0" />
  </sodipodi:namedview>
  <g
     id="g2"
     transform="translate(-19.883147,-92.353158)">
    <path
       fill="#092038"
       d="m 373.7094,508.92734 c -4.7997,-4.4645 -15.7544,-12.31697 -24.344,-17.44998 -54.6796,-32.67567 -126.152,-49.46128 -205.3717,-48.23239 l -30.3471,0.47077 v -31.40791 -31.40794 l 19.5089,0.72663 c 10.7298,0.39965 33.1651,3.04422 49.856,5.8769 76.5934,12.99883 141.2616,45.47868 178.9113,89.85896 10.7942,12.7239 22.6081,33.54149 21.2663,37.47395 -0.4143,1.21456 -4.6803,-1.4445 -9.4797,-5.90899 z m 18.4808,6.24568 c 0,-4.20043 8.6332,-20.0929 18.456,-33.97434 21.9849,-31.06905 74.2342,-64.57036 126.7768,-81.2869 29.1465,-9.27307 70.2221,-16.06168 99.7076,-16.47877 l 24.9325,-0.35271 0.5983,30.52573 0.5981,30.52571 -46.1189,0.0953 c -38.1441,0.0788 -50.9917,0.95998 -74.2984,5.09489 -57.3961,10.18278 -105.8314,30.63111 -139.2718,58.79765 -6.2592,5.27195 -11.3802,8.44593 -11.3802,7.05325 z m 299.1363,-2.59979 C 622.8674,488.07815 520.3813,482.43704 460.688,499.87824 c -8.4647,2.47316 -17.2195,5.02897 -19.4552,5.67952 -2.3097,0.6721 -3.5083,0.2771 -2.776,-0.91476 1.5952,-2.59645 28.2119,-12.27478 46.3812,-16.86512 7.4406,-1.87984 27.4372,-5.42248 44.4369,-7.87256 36.0515,-5.19591 95.7789,-5.76275 146.878,-1.39391 l 31.431,2.68727 v 17.26158 c 0,9.68169 -0.9518,17.50683 -2.1677,17.82016 -1.1922,0.30723 -7.5325,-1.36099 -14.0897,-3.70719 z M 66.2197,499.18705 c 0.7568,-8.69441 1.9828,-16.44083 2.7249,-17.21435 2.9306,-3.05545 94.9145,-8.93054 119.4861,-7.63166 30.458,1.61003 82.7923,8.55473 101.8797,13.51933 16.8398,4.38002 43.8857,14.24326 42.6007,15.53586 -0.5022,0.50518 -8.6979,-1.08077 -18.2124,-3.52438 -24.3816,-6.26176 -81.3508,-11.48683 -107.8429,-9.89105 -37.0887,2.23406 -70.2432,7.42293 -104.7011,16.38629 -18.2427,4.74535 -34.1004,8.62793 -35.2395,8.62793 -1.2525,0 -1.5273,-6.24878 -0.6955,-15.80797 z M 375.2496,468.76824 C 362.5846,448.15536 318.6094,412.59678 284.4831,395.37412 265.012,385.54755 216.684,369.95505 192.224,365.60775 l -21.1346,-3.75627 v -28.08787 c 0,-32.68495 -1.9614,-30.91127 26.1883,-23.68172 77.553,19.91752 143.1929,67.82087 171.8213,125.39336 5.4743,11.00904 13.2864,37.77925 11.5379,39.53805 -0.527,0.53001 -2.9513,-2.28028 -5.3873,-6.24512 z m 19.2615,4.79903 c -0.056,-1.79886 1.1984,-8.18161 2.7877,-14.1839 14.7676,-55.77455 68.9647,-108.01026 141.3316,-136.21691 16.9165,-6.59361 55.911,-17.49066 62.5894,-17.49066 2.9142,0 3.4004,4.04696 3.4004,28.30376 0,27.60105 -0.1209,28.32871 -4.8771,29.3075 -2.6825,0.55204 -11.7054,2.19123 -20.0508,3.64259 -68.6472,11.93863 -135.5352,47.12471 -169.9719,89.41266 -5.4688,6.71579 -11.1053,14.07466 -12.5255,16.35307 -1.9398,3.11197 -2.6074,3.32886 -2.6838,0.87189 z m -17.4945,-72.61395 c 0,-5.19222 -17.5184,-39.37376 -27.0122,-52.70557 -16.6436,-23.37238 -47.1255,-50.17531 -75.4095,-66.30831 l -12.4639,-7.1094 v -28.18528 c 0,-17.08604 0.8422,-28.18529 2.139,-28.18529 6.5029,0 35.8596,20.84388 52.2056,37.06694 30.4383,30.20969 48.5268,61.70501 56.1103,97.69907 4.2693,20.26214 7.6527,50.5687 5.6458,50.5687 -0.6683,0 -1.2151,-1.27838 -1.2151,-2.84086 z m 18.8658,-7.62657 c 2.2799,-24.1521 7.6319,-49.80634 13.6497,-65.42829 16.5078,-42.85405 48.7065,-80.49203 86.8859,-101.5636 7.8486,-4.33171 14.9205,-7.22161 15.7154,-6.42203 0.795,0.79964 1.4454,13.38295 1.4454,27.963 v 26.50919 l -21.0145,12.91987 c -36.0984,22.1937 -68.791,58.42931 -88.6789,98.28978 l -8.9703,17.97855 z m -15.1412,-96.3726 c -2.0547,-14.99031 -3.7204,-34.12337 -3.7018,-42.51793 0.088,-39.49713 16.6854,-83.80488 41.6634,-111.22451 11.9763,-13.14694 40.7495,-35.95309 45.3599,-35.95309 1.0053,0 1.8277,13.74617 1.8277,30.54709 0,26.45233 -0.5084,30.96453 -3.7933,33.66157 -2.0865,1.71296 -9.3995,7.64218 -16.2514,13.17596 -34.3665,27.75527 -55.3899,70.03573 -59.6899,120.04256 l -1.6789,19.52348 z"
       id="path1" />
    <text
       style="font-size:346.667px;font-family:Stoke;text-anchor:middle;fill:#092038"
       x="1651.86"
       y="406.75"
       transform="scale(0.995,1.005)"
       id="text1">Vitaeology</text>
    <text
       style="font-size:90.667px;font-family:Stoke;text-anchor:middle;fill:#092038"
       x="1366.48"
       y="511.92999"
       transform="scale(0.995,1.005)"
       id="text2">tre passi in libertà</text>
  </g>
</svg>
