<svg xmlns="http://www.w3.org/2000/svg" viewBox="0 0 2621 382">
  <g transform="translate(-53.63,-114.46)">
    <g>
      <path fill="#ffffff" d="m 321.21834,476.77304 c -4.17024,-3.87913 -13.68865,-10.70202 -21.15201,-15.162 -47.51019,-28.39136 -109.61142,-42.9761 -178.44411,-41.90833 l -26.368171,0.40904 v -27.28983 -27.28985 l 16.950981,0.63135 c 9.32302,0.34725 28.81662,2.64509 43.31911,5.10635 66.55082,11.29446 122.7399,39.51569 155.45309,78.07699 9.37887,11.05558 19.64387,29.14367 18.47802,32.56051 -0.36009,1.0553 -4.06668,-1.2551 -8.23691,-5.13423 z m 16.05774,5.42677 c 0,-3.64968 7.50135,-17.4584 16.03614,-29.51975 19.10228,-26.9954 64.50089,-56.10413 110.15431,-70.62887 25.32495,-8.05722 61.01486,-13.95573 86.63428,-14.31814 l 21.66348,-0.30646 0.51978,26.52331 0.5198,26.5233 -40.07203,0.0828 c -33.14276,0.0686 -44.3059,0.83412 -64.55671,4.42687 -49.87053,8.84767 -91.95506,26.61489 -121.011,51.08833 -5.43844,4.58071 -9.88805,7.33853 -9.88805,6.12846 z m 259.91466,-2.25891 c -59.48305,-21.28338 -148.5314,-26.18485 -200.39803,-11.03047 -7.3548,2.1489 -14.96171,4.36959 -16.90426,4.93484 -2.00688,0.58397 -3.04836,0.24077 -2.41208,-0.79481 1.38614,-2.25601 24.51289,-10.66537 40.29988,-14.65383 6.46504,-1.63337 23.83979,-4.71152 38.61052,-6.84035 31.32456,-4.51464 83.22079,-5.00717 127.61989,-1.21114 l 27.30987,2.33492 v 14.9983 c 0,8.41226 -0.82704,15.21142 -1.88344,15.48366 -1.03588,0.26695 -6.54493,-1.18254 -12.24235,-3.22112 z M 54.045692,468.30986 c 0.657423,-7.55442 1.722783,-14.28517 2.367457,-14.95727 2.546516,-2.65483 82.469821,-7.7596 103.819591,-6.63103 26.46453,1.39893 71.93696,7.43307 88.52167,11.74673 14.6319,3.80574 38.13154,12.37574 37.01499,13.49887 -0.43638,0.43894 -7.5574,-0.93907 -15.82451,-3.06228 -21.18469,-5.44074 -70.68434,-9.98073 -93.70291,-8.59418 -32.22575,1.94113 -61.03305,6.44966 -90.973039,14.23779 -15.850745,4.12316 -29.6293,7.49666 -30.619046,7.49666 -1.088184,0 -1.327018,-5.42947 -0.604203,-13.73529 z M 322.55663,441.87945 c -11.00437,-17.91019 -49.21375,-48.80646 -78.86545,-63.77095 -16.91815,-8.53815 -58.9096,-22.08623 -80.16243,-25.86352 l -18.36354,-3.26376 v -24.4051 c 0,-28.39943 -1.70425,-26.85831 22.75463,-20.57665 67.38447,17.306 124.41795,58.92845 149.2927,108.95224 4.75656,9.56559 11.54424,32.82579 10.02501,34.35397 -0.45786,0.46053 -2.56426,-1.98129 -4.68092,-5.42628 z m 16.73601,4.16979 c -0.0486,-1.56299 1.04138,-7.10886 2.42226,-12.32415 12.83132,-48.4616 59.92227,-93.84837 122.80061,-118.35666 14.69854,-5.72908 48.58024,-15.19735 54.38293,-15.19735 2.53224,0 2.9547,3.51633 2.9547,24.59268 0,23.98211 -0.1052,24.61436 -4.23774,25.4648 -2.33074,0.47967 -10.17057,1.90393 -17.42182,3.165 -59.64633,10.37327 -117.76434,40.94588 -147.68574,77.6892 -4.75185,5.83524 -9.64932,12.22924 -10.88328,14.20892 -1.6854,2.70394 -2.26552,2.89239 -2.33192,0.75756 z m -15.20065,-63.09306 c 0,-4.51144 -15.22144,-34.21123 -23.47039,-45.79502 -14.46148,-20.30789 -40.94665,-43.59652 -65.52214,-57.61422 l -10.82977,-6.17724 v -24.48974 c 0,-14.84578 0.73192,-24.48974 1.85865,-24.48974 5.65022,0 31.15785,18.11091 45.36054,32.20687 26.44742,26.2487 42.16412,53.61447 48.75345,84.88912 3.70933,17.60546 6.64922,43.93833 4.90541,43.93833 -0.58066,0 -1.05575,-1.11076 -1.05575,-2.46836 z m 16.39221,-6.62661 c 1.98101,-20.98537 6.63129,-43.27592 11.86001,-56.84958 14.34337,-37.23518 42.32026,-69.93823 75.49371,-88.24697 6.81953,-3.76375 12.96424,-6.27474 13.65494,-5.57999 0.69071,0.69478 1.25584,11.62822 1.25584,24.29659 v 23.03341 l -18.25913,11.22587 c -31.36538,19.28373 -59.77137,50.76827 -77.05174,85.40238 l -7.7941,15.62128 z m -13.15594,-83.73659 c -1.78525,-13.02483 -3.23261,-29.64924 -3.21636,-36.94315 0.0764,-34.31841 14.49754,-72.8167 36.20062,-96.64117 10.40603,-11.42316 35.40656,-31.23905 39.41243,-31.23905 0.87344,0 1.58807,11.94382 1.58807,26.54187 0,22.98399 -0.44183,26.90457 -3.29602,29.24799 -1.8128,1.48836 -8.16707,6.64016 -14.12058,11.44838 -29.86033,24.11611 -48.12733,60.85291 -51.86355,104.30304 l -1.45869,16.96363 z"/>
      <text style="font-size:346.667px;font-family:Stoke;text-anchor:middle;fill:#ffffff" x="1651.86" y="406.75" transform="scale(0.995,1.005)">Vitaeology</text>
    </g>
  </g>
</svg>
